<svg width="500" height="500" viewBox="0 0 500 500" fill="none" xmlns="http://www.w3.org/2000/svg">
<path fill-rule="evenodd" clip-rule="evenodd" d="M267.009 500C261.486 500 257.009 495.523 257.009 490V319.04V266.44V266.44C257.009 260.917 261.486 256.44 267.009 256.44H319.439L319.464 256.44H490C495.523 256.44 500 260.917 500 266.44V319.04C500 324.563 495.523 329.04 490 329.04H404.348C395.428 329.04 390.971 339.832 397.291 346.126L496.874 445.291C498.749 447.158 499.809 449.693 499.822 452.342L500.008 489.94C500.036 495.508 495.524 500.028 489.968 500L451.318 499.801C448.663 499.787 446.123 498.715 444.259 496.821L346.565 397.593C340.288 391.217 329.439 395.662 329.439 404.608V490C329.439 495.523 324.962 500 319.439 500H267.009Z" fill="#1D1D1D"/>
<path fill-rule="evenodd" clip-rule="evenodd" d="M1.16821 10C1.16821 7.92893 1.79781 6.00491 2.87606 4.4089C3.5011 3.48372 4.2769 2.66876 5.16821 1.99927C6.83953 0.743889 8.917 0 11.1682 0H63.5981H234.159C239.682 0 244.159 4.47715 244.159 10V62.5995C244.159 68.1224 239.682 72.5995 234.159 72.5995H148.506C139.587 72.5995 135.13 83.3919 141.45 89.6855L241.033 188.85C242.908 190.717 243.968 193.253 243.981 195.902L244.167 233.499C244.195 239.068 239.683 243.588 234.127 243.56L195.477 243.36C192.822 243.347 190.282 242.275 188.417 240.381L90.7241 141.152C84.4473 134.777 73.5981 139.221 73.5981 148.168V233.56C73.5981 239.083 69.1209 243.56 63.5981 243.56H11.1682C5.64536 243.56 1.16821 239.083 1.16821 233.56V62.5995V10Z" fill="#1D1D1D"/>
<path fill-rule="evenodd" clip-rule="evenodd" d="M266.002 243.56C260.39 243.56 255.841 239.01 255.841 233.398V10.1613C255.841 4.54937 260.39 0 266.002 0H319.278C324.89 0 329.439 4.54937 329.439 10.1613V32.6128C329.439 35.2733 330.499 37.8242 332.385 39.7009L409.348 116.293C415.654 122.569 426.402 118.102 426.402 109.205V10.1613C426.402 4.54937 430.951 0 436.563 0H489.839C495.451 0 500 4.54937 500 10.1613V233.398C500 239.01 495.451 243.56 489.839 243.56H436.563C433.271 243.56 430.344 241.994 428.487 239.566C427.976 238.898 427.482 238.212 426.89 237.614L346.544 156.487C340.259 150.14 329.439 154.591 329.439 163.523V233.398C329.439 239.01 324.89 243.56 319.278 243.56H266.002Z" fill="#1D1D1D"/>
<rect x="1.16821" y="426.229" width="73.5981" height="73.7705" rx="36.7991" fill="#FF3D00"/>
<path fill-rule="evenodd" clip-rule="evenodd" d="M-0.000213623 265.269C-0.000213623 259.746 4.47696 255.269 9.99979 255.269H234.159C235.262 255.269 236.323 255.448 237.315 255.778C241.291 257.099 244.159 260.849 244.159 265.269V490C244.159 495.523 239.682 500 234.159 500H180.561C175.038 500 170.561 495.523 170.561 490V424.52C170.561 418.997 166.083 414.52 160.561 414.52H9.99979C4.47696 414.52 -0.000213623 410.043 -0.000213623 404.52V350.749C-0.000213623 345.227 4.47696 340.749 9.99979 340.749H164.706C167.939 340.749 170.561 338.128 170.561 334.895C170.561 331.661 167.939 329.04 164.706 329.04H9.99979C4.47696 329.04 -0.000213623 324.563 -0.000213623 319.04V265.269Z" fill="#1D1D1D"/>
</svg>
