<svg width="120" height="120" viewBox="0 0 120 120" fill="none" xmlns="http://www.w3.org/2000/svg">
<path d="M64.0812 120C62.7557 120 61.6812 118.925 61.6812 117.6V63.9457C61.6812 62.6202 62.7557 61.5457 64.0812 61.5457H76.6642L76.6702 61.5457H117.598C118.923 61.5457 119.998 62.6202 119.998 63.9457V76.5696C119.998 77.895 118.923 78.9696 117.598 78.9696H97.0418C94.9013 78.9696 93.8316 81.5597 95.3484 83.0702L119.248 106.87C119.698 107.318 119.952 107.926 119.955 108.562L120 117.585C120.007 118.922 118.924 120.007 117.59 120L108.315 119.952C107.677 119.949 107.068 119.692 106.62 119.237L83.1743 95.4222C81.6679 93.8921 79.0641 94.9588 79.0641 97.106V117.6C79.0641 118.925 77.9896 120 76.6642 120H64.0812Z" fill="white"/>
<path d="M0.280418 2.4C0.280418 1.90294 0.43152 1.44118 0.690294 1.05814C0.840301 0.836092 1.02649 0.640502 1.2404 0.479824C1.64151 0.178533 2.1401 0 2.68038 0H56.1972C57.5227 0 58.5972 1.07452 58.5972 2.4V15.0239C58.5972 16.3494 57.5227 17.4239 56.1972 17.4239H35.641C33.5004 17.4239 32.4308 20.0141 33.9475 21.5245L57.847 45.3241C58.2969 45.7722 58.5514 46.3807 58.5545 47.0164L58.5992 56.0398C58.6058 57.3762 57.523 58.4612 56.1895 58.4543L46.9137 58.4065C46.2766 58.4032 45.667 58.1459 45.2195 57.6914L21.7735 33.8766C20.2671 32.3465 17.6633 33.4132 17.6633 35.5604V56.0543C17.6633 57.3798 16.5888 58.4543 15.2633 58.4543H2.68038C1.35492 58.4543 0.280418 57.3798 0.280418 56.0543V2.4Z" fill="white"/>
<path d="M63.8395 58.4543C62.4927 58.4543 61.4009 57.3625 61.4009 56.0156V2.43871C61.4009 1.09185 62.4927 0 63.8395 0H76.6254C77.9723 0 79.0641 1.09185 79.0641 2.43871V7.82707C79.0641 8.4656 79.3186 9.07781 79.7711 9.52822L98.2419 27.9103C99.7554 29.4166 102.335 28.3445 102.335 26.2092V2.43871C102.335 1.09185 103.427 0 104.773 0H117.559C118.906 0 119.998 1.09185 119.998 2.43871V56.0156C119.998 57.3625 118.906 58.4543 117.559 58.4543H104.773C103.983 58.4543 103.281 58.0785 102.835 57.4959C102.713 57.3354 102.594 57.1708 102.452 57.0273L83.1693 37.5568C81.6608 36.0336 79.0641 37.1018 79.0641 39.2456V56.0156C79.0641 57.3625 77.9723 58.4543 76.6254 58.4543H63.8395Z" fill="white"/>
<path d="M0.280416 111.148C0.280416 106.27 4.23447 102.295 9.11204 102.295C13.9896 102.295 17.9437 106.27 17.9437 111.148C17.9437 116.025 13.9896 120 9.11204 120C4.23447 120 0.280416 116.025 0.280416 111.148Z" fill="#FF3D00"/>
<path d="M0 63.6646C0 62.3391 1.0745 61.2646 2.39996 61.2646H56.1972C56.4619 61.2646 56.7166 61.3075 56.9547 61.3866C57.909 61.7038 58.5971 62.6039 58.5971 63.6646V117.6C58.5971 118.925 57.5226 120 56.1972 120H43.3339C42.0084 120 40.9339 118.925 40.9339 117.6V101.885C40.9339 100.559 39.8594 99.4848 38.5339 99.4848H2.39996C1.0745 99.4848 0 98.4103 0 97.0848V84.1799C0 82.8544 1.0745 81.7799 2.39996 81.7799H39.5288C40.3048 81.7799 40.9339 81.1507 40.9339 80.3747C40.9339 79.5987 40.3048 78.9695 39.5288 78.9695H2.39996C1.0745 78.9695 0 77.895 0 76.5695V63.6646Z" fill="white"/>
</svg>
