<?xml version="1.0" standalone="no"?>
<!DOCTYPE svg PUBLIC "-//W3C//DTD SVG 20010904//EN"
 "http://www.w3.org/TR/2001/REC-SVG-20010904/DTD/svg10.dtd">
<svg version="1.0" xmlns="http://www.w3.org/2000/svg"
 width="700.000000pt" height="700.000000pt" viewBox="0 0 700.000000 700.000000"
 preserveAspectRatio="xMidYMid meet">
<metadata>
Created by potrace 1.14, written by Peter Selinger 2001-2017
</metadata>
<g transform="translate(0.000000,700.000000) scale(0.100000,-0.100000)"
fill="#000000" stroke="none">
<path d="M93 6984 c-18 -9 -43 -33 -55 -52 l-22 -37 0 -1600 c0 -1522 1 -1601
18 -1630 10 -16 30 -39 44 -50 26 -19 43 -20 449 -20 l421 0 27 25 c57 53 55
27 55 712 1 608 1 635 20 665 36 59 120 84 182 53 23 -12 84 -73 963 -966 253
-257 474 -472 490 -479 21 -9 114 -13 325 -14 325 -2 339 1 384 62 20 27 21
41 22 320 0 161 -4 307 -9 325 -6 26 -169 194 -724 745 -423 421 -721 725
-729 744 -20 46 -17 86 7 128 42 71 12 68 719 69 717 2 680 -2 719 79 20 41
21 55 18 444 -2 388 -3 402 -23 430 -11 15 -36 36 -55 45 -32 17 -130 18
-1624 18 -1437 0 -1593 -2 -1622 -16z"/>
<path d="M3662 6983 c-18 -9 -43 -30 -55 -47 l-22 -31 -2 -1601 c-1 -1519 -1
-1604 16 -1635 10 -18 30 -43 45 -54 26 -19 43 -20 445 -23 l417 -3 34 23 c19
13 42 37 53 55 17 30 18 62 18 551 0 468 2 522 17 553 32 64 109 95 176 70 21
-9 577 -561 1081 -1076 90 -91 172 -166 185 -170 14 -3 208 -4 432 -3 393 3
407 4 435 24 15 11 36 36 45 55 17 32 18 130 18 1624 0 1494 -1 1592 -18 1624
-9 19 -30 44 -45 55 -28 20 -42 21 -446 24 l-417 3 -35 -23 c-72 -49 -69 -9
-69 -818 0 -701 -1 -726 -20 -757 -37 -62 -119 -90 -176 -60 -40 21 -1128
1105 -1147 1142 -12 24 -16 71 -17 218 0 103 -5 198 -9 210 -12 29 -49 63 -84
76 -18 7 -168 11 -425 11 -345 0 -401 -3 -430 -17z"/>
<path d="M94 3414 c-94 -32 -94 -34 -94 -508 0 -372 1 -404 19 -436 10 -19 34
-44 52 -55 33 -20 53 -20 1134 -21 605 0 1112 -4 1126 -7 59 -15 74 -93 26
-137 -20 -20 -43 -20 -1131 -20 -1239 0 -1154 5 -1203 -69 -22 -33 -23 -35
-23 -450 0 -415 1 -417 23 -449 49 -70 -28 -65 1177 -66 1212 -1 1124 4 1167
-73 21 -37 21 -45 22 -531 0 -551 -2 -530 72 -571 37 -21 46 -22 453 -19 401
3 415 4 443 24 15 11 36 35 45 54 16 31 17 144 15 1644 -2 1781 4 1635 -67
1679 l-35 22 -1593 0 c-1195 1 -1602 -2 -1628 -11z"/>
<path d="M3695 3403 c-27 -7 -75 -52 -87 -83 -14 -36 -13 -3196 1 -3230 16
-40 35 -59 74 -75 30 -12 101 -15 421 -15 248 0 395 4 413 11 41 15 82 58 88
93 3 17 7 312 8 656 l2 625 24 32 c39 52 114 73 168 46 17 -8 224 -211 460
-451 237 -240 553 -562 703 -714 149 -152 284 -281 299 -286 14 -5 159 -9 321
-10 325 -2 339 0 384 61 20 27 21 42 22 325 1 178 -3 309 -9 327 -7 19 -267
286 -733 750 -691 689 -722 722 -729 764 -9 56 13 108 61 140 l34 24 638 1
c618 1 638 2 671 21 18 11 42 36 52 55 18 32 19 63 19 430 0 440 0 441 -69
487 l-34 23 -1591 -1 c-875 -1 -1600 -3 -1611 -6z"/>
<path d="M435 1024 c-116 -28 -227 -93 -293 -172 -42 -50 -97 -150 -106 -192
-3 -14 -8 -36 -11 -50 -7 -32 -8 -155 -1 -177 3 -10 8 -31 10 -48 3 -16 21
-62 41 -102 123 -249 439 -353 689 -226 62 32 68 36 137 106 196 200 192 516
-10 718 -62 62 -157 119 -224 136 -30 7 -207 13 -232 7z"/>
</g>
</svg>
