<?xml version="1.0" standalone="no"?>
<!DOCTYPE svg PUBLIC "-//W3C//DTD SVG 20010904//EN"
 "http://www.w3.org/TR/2001/REC-SVG-20010904/DTD/svg10.dtd">
<svg version="1.0" xmlns="http://www.w3.org/2000/svg"
 width="2000.000000pt" height="2000.000000pt" viewBox="0 0 2000.000000 2000.000000"
 preserveAspectRatio="xMidYMid meet">
<metadata>
Created by potrace 1.14, written by Peter Selinger 2001-2017
</metadata>
<g transform="translate(0.000000,2000.000000) scale(0.100000,-0.100000)"
fill="#000000" stroke="none">
<path d="M15968 18523 c-20 -23 -63 -93 -101 -163 -50 -92 -97 -158 -217 -310
-64 -80 -126 -161 -140 -180 -13 -19 -27 -37 -30 -40 -8 -7 -70 -109 -70 -115
0 -3 12 -5 27 -5 19 0 41 15 78 53 103 107 344 451 395 562 51 111 68 153 75
184 8 35 4 38 -17 14z"/>
<path d="M15616 18358 c-94 -110 -256 -304 -443 -534 -146 -180 -421 -515
-442 -540 -14 -17 -42 -50 -62 -75 -106 -128 -317 -365 -424 -477 l-100 -104
-52 -1 -52 -2 68 70 c37 39 73 78 81 88 8 10 22 26 31 35 34 35 309 383 410
517 113 150 289 399 289 408 0 3 14 26 31 51 53 80 100 193 97 234 -4 55 -36
54 -119 -1 -210 -141 -733 -722 -1199 -1332 -46 -60 -87 -112 -90 -115 -3 -3
-27 -34 -55 -70 -27 -36 -52 -67 -55 -70 -3 -3 -27 -32 -55 -65 -146 -176
-237 -261 -540 -504 -409 -329 -633 -497 -870 -653 -325 -214 -512 -311 -935
-488 -138 -58 -252 -108 -409 -182 -57 -26 -105 -48 -106 -48 -2 0 -50 -22
-107 -49 -220 -104 -279 -131 -283 -131 -3 0 -30 -12 -62 -26 -175 -80 -401
-172 -521 -213 -669 -225 -1226 -423 -1237 -441 -10 -17 76 -2 225 39 137 37
872 300 1025 366 17 7 57 23 90 35 33 13 74 29 90 36 17 7 95 38 175 70 80 31
159 62 175 69 17 7 50 20 75 30 25 9 63 26 86 36 22 10 58 25 80 33 58 20 548
225 718 300 173 77 364 148 379 143 16 -5 -97 -70 -378 -217 -224 -118 -679
-317 -1055 -462 -58 -22 -125 -49 -150 -58 -99 -39 -479 -183 -545 -206 -38
-14 -79 -29 -90 -34 -11 -5 -137 -54 -280 -109 -294 -112 -526 -206 -695 -279
-134 -58 -164 -67 -285 -83 -49 -6 -126 -23 -170 -36 -44 -14 -107 -33 -140
-43 -128 -39 -636 -225 -860 -315 -77 -30 -158 -58 -180 -61 -269 -37 -599
-122 -1065 -277 -163 -54 -376 -130 -415 -147 -11 -5 -67 -28 -124 -50 -57
-23 -141 -57 -185 -77 -45 -20 -106 -47 -136 -61 -73 -32 -392 -192 -466 -233
-371 -205 -701 -471 -944 -763 -184 -221 -311 -470 -351 -691 -13 -70 -16 -73
-82 -133 -45 -41 -124 -125 -172 -183 -81 -98 -206 -264 -279 -369 -47 -69
-89 -129 -93 -135 -19 -23 -122 -206 -152 -270 -65 -136 -84 -256 -48 -293 20
-19 32 -10 75 55 20 31 49 74 65 97 31 47 132 214 160 266 45 83 189 292 227
330 3 3 20 23 39 45 47 57 234 245 242 245 17 0 -2 -43 -33 -73 -163 -162
-314 -372 -445 -617 -28 -52 -68 -124 -88 -160 -154 -271 -235 -516 -203 -611
7 -21 1 -47 -30 -125 -37 -93 -67 -186 -79 -244 -9 -43 -5 -142 6 -153 13 -13
6 -23 86 118 37 66 76 132 86 147 11 15 19 29 19 31 0 3 64 120 165 302 12 22
41 75 65 118 39 72 62 98 76 84 3 -3 -26 -71 -65 -151 -39 -80 -71 -148 -71
-152 0 -3 -54 -121 -121 -262 -149 -319 -164 -352 -175 -392 -2 -8 -15 -51
-28 -96 -13 -44 -26 -102 -29 -129 -4 -52 10 -135 23 -135 12 0 50 50 50 65 0
7 8 23 18 36 10 13 39 69 64 124 26 55 64 138 86 185 45 97 69 151 137 303 26
59 49 106 51 104 2 -1 -8 -34 -22 -72 -35 -96 -65 -198 -59 -203 14 -15 89 94
225 329 8 15 53 88 100 163 l85 136 35 -6 c19 -3 41 -6 48 -7 25 -1 5 -21 -36
-35 -23 -7 -53 -28 -68 -45 l-27 -32 37 -14 c20 -7 36 -18 36 -23 0 -5 3 -7 8
-4 4 2 34 -2 67 -10 33 -8 69 -16 80 -19 98 -23 229 -65 200 -64 -110 4 -101
-18 33 -82 213 -101 432 -219 432 -233 0 -1 -39 11 -88 26 -88 29 -122 39
-355 102 -244 66 -382 64 -406 -5 -9 -25 -7 -31 12 -43 28 -18 98 -49 157 -69
177 -61 355 -131 483 -191 78 -37 108 -59 39 -30 -209 89 -310 121 -442 140
-58 9 -139 23 -180 31 -126 27 -165 28 -189 4 -11 -11 -23 -32 -27 -46 -12
-47 47 -76 211 -107 l70 -13 -48 -7 c-56 -8 -62 -11 -54 -32 7 -18 49 -45 167
-108 362 -194 532 -299 745 -464 123 -94 208 -174 170 -159 -11 4 -77 28 -146
54 -130 48 -145 57 -264 171 -137 130 -434 299 -506 288 -16 -2 26 -35 157
-122 99 -66 180 -123 182 -128 2 -4 8 -8 13 -8 9 0 159 -100 183 -121 5 -5 -6
-4 -25 1 -56 16 -145 16 -163 1 -48 -40 -17 -62 324 -234 246 -124 279 -142
269 -151 -4 -4 -92 28 -164 59 -33 14 -171 61 -278 94 -37 12 -107 40 -155 62
-107 49 -167 59 -211 33 -16 -10 -33 -24 -35 -31 -14 -36 105 -111 272 -173
34 -12 62 -24 62 -26 0 -2 -29 -1 -65 3 -43 4 -65 2 -65 -5 0 -41 404 -291
789 -489 l133 -68 43 -75 c24 -41 41 -77 39 -79 -3 -3 -75 38 -84 49 -9 12
-125 86 -205 132 -259 148 -492 262 -523 256 -14 -3 115 -87 238 -156 19 -10
98 -55 175 -99 77 -44 165 -93 195 -110 30 -16 80 -44 110 -61 30 -16 75 -41
100 -55 37 -21 52 -39 92 -113 27 -49 61 -130 78 -181 32 -100 32 -99 55 -258
23 -158 24 -164 37 -184 6 -10 23 -26 37 -34 46 -28 112 -89 136 -128 13 -20
33 -74 45 -118 32 -125 33 -128 124 -227 33 -36 66 -73 73 -84 30 -43 232
-130 302 -130 47 0 71 29 65 81 -6 50 -24 78 -93 142 -28 26 -51 52 -51 56 0
5 15 14 33 21 50 20 58 29 46 51 -5 10 -22 25 -37 33 -60 32 -143 127 -238
271 -98 151 -256 504 -242 545 2 6 49 -23 105 -65 98 -74 103 -78 127 -143 34
-90 44 -134 52 -217 4 -38 16 -88 27 -110 18 -36 89 -112 213 -226 94 -87 157
-164 186 -226 15 -35 28 -70 28 -79 0 -65 135 -159 246 -171 32 -3 43 0 48 13
5 12 -14 36 -70 88 -88 82 -90 95 -23 142 22 15 49 40 60 56 23 32 39 29 39
-8 0 -34 39 -114 70 -143 58 -55 109 -61 245 -31 98 21 105 21 153 1 30 -12
34 -12 47 5 23 30 40 93 28 105 -5 5 -36 12 -69 15 -48 5 -70 14 -124 52 -94
65 -138 102 -156 130 -15 22 -14 25 7 48 l23 24 42 -48 c61 -69 131 -104 220
-110 82 -5 75 0 189 -142 64 -81 329 -393 381 -450 18 -19 91 -109 164 -200
72 -91 136 -172 143 -180 7 -8 68 -85 137 -170 263 -328 395 -480 416 -480 7
0 14 -3 14 -7 0 -13 52 -67 87 -91 17 -12 87 -41 155 -63 177 -60 212 -80 298
-172 228 -245 275 -282 553 -431 126 -68 373 -140 592 -172 17 -2 44 -6 60 -9
136 -21 265 -12 265 18 -1 53 -159 145 -405 235 -260 95 -271 99 -303 116 -46
24 -48 35 -11 67 l34 29 -30 26 c-16 14 -73 44 -125 68 -117 53 -234 126 -410
255 -74 55 -205 147 -291 204 -85 58 -200 141 -255 184 -101 81 -256 235 -290
289 -10 16 -21 31 -24 34 -3 3 -20 29 -38 57 -17 29 -40 61 -49 71 -10 11 -47
49 -82 86 l-64 66 32 0 c30 0 83 -33 168 -106 11 -11 41 -35 64 -54 24 -19
109 -91 189 -160 80 -69 156 -134 170 -146 14 -12 48 -41 75 -65 28 -24 75
-64 105 -89 55 -45 136 -125 240 -237 109 -118 371 -268 855 -490 77 -35 158
-73 180 -83 22 -10 60 -27 85 -38 25 -11 106 -47 181 -81 137 -61 228 -94 290
-105 19 -3 68 -12 109 -20 104 -19 384 -17 425 4 16 8 30 20 30 25 0 13 -57
31 -126 39 -31 4 -66 8 -77 11 -11 2 -37 6 -58 9 -22 4 -55 11 -74 16 -19 5
-44 11 -55 13 -51 9 -114 31 -157 54 l-46 25 1 62 c2 51 -2 67 -22 93 -14 18
-21 36 -18 40 4 4 40 -8 80 -26 133 -61 313 -130 391 -151 81 -22 176 -76 169
-97 -4 -12 9 -18 31 -14 4 1 27 -10 51 -24 62 -36 205 -106 235 -115 14 -4 91
-28 171 -54 220 -68 263 -76 441 -80 205 -4 377 31 386 78 10 49 -116 117
-263 142 -85 14 -152 26 -170 29 -153 29 -157 31 -124 74 23 28 28 30 95 30
68 1 141 21 155 43 4 6 35 1 80 -12 93 -27 249 -80 270 -91 42 -22 155 -30
234 -16 120 20 304 102 297 132 -3 11 -70 11 -259 0 -155 -10 -171 -3 -171 77
-1 54 -6 90 -17 107 -13 21 18 20 92 -4 142 -47 231 -50 363 -14 97 27 179 67
259 125 36 26 94 60 130 77 57 25 73 28 120 23 77 -9 271 -57 266 -66 -4 -7
-45 -15 -130 -26 -71 -10 -169 -31 -203 -45 -31 -13 -32 -15 -18 -34 12 -17
26 -20 88 -20 59 0 82 -5 123 -26 44 -23 124 -53 235 -87 53 -17 104 -22 121
-11 8 5 9 9 2 9 -8 0 -4 25 13 77 13 43 24 87 24 98 -1 19 -1 19 -14 2 -13
-17 -17 -17 -76 10 l-63 28 41 28 c23 15 54 27 69 28 16 0 21 3 13 6 -8 2 -22
7 -30 10 -8 3 -19 7 -25 8 -5 2 -40 15 -76 29 l-66 27 34 34 c23 23 31 39 26
50 -6 16 -19 17 -144 11 l-138 -7 -131 54 c-72 30 -130 58 -128 63 2 4 21 25
43 45 l41 38 89 -21 c118 -26 228 -28 255 -3 11 10 20 26 20 36 0 46 -224 179
-744 440 -144 73 -269 138 -280 145 -17 12 -17 13 7 26 67 36 157 132 157 168
0 20 -69 4 -154 -36 -43 -20 -93 -37 -113 -38 -34 -1 -35 0 -58 63 -13 35 -28
68 -34 74 -27 27 -11 35 78 35 182 -1 289 71 359 240 61 147 141 209 255 198
33 -3 63 -8 66 -12 7 -6 -57 -66 -154 -143 l-67 -53 21 -21 21 -21 36 21 c55
31 158 136 178 182 15 32 25 41 45 42 181 4 407 58 462 110 34 31 30 53 -13
81 -70 44 -150 58 -371 62 -85 1 -102 9 -48 21 16 3 37 15 46 25 16 18 16 21
2 44 -19 28 -118 79 -197 101 l-55 15 65 -5 c119 -9 172 -14 310 -30 83 -9
197 -34 269 -57 134 -43 386 -16 539 58 91 45 60 65 -89 58 -210 -11 -264 -11
-286 -1 -34 15 -20 24 54 31 77 8 162 41 147 56 -13 13 -114 30 -181 30 -50 0
-54 2 -67 32 -7 18 -10 37 -6 41 4 4 60 -5 126 -20 223 -52 416 -32 584 59
161 88 243 126 288 134 79 13 92 14 242 17 120 3 155 7 202 26 64 25 108 56
108 77 0 18 7 17 -205 20 -99 1 -200 5 -225 9 -25 4 -164 10 -310 13 l-265 5
110 28 c61 16 120 31 132 34 28 7 111 52 136 74 43 37 45 94 4 107 -12 3 -31
14 -42 24 -33 31 -130 58 -260 74 -27 4 -66 9 -85 11 -81 11 -117 15 -194 20
-44 4 -92 8 -106 10 -14 2 -56 6 -95 10 -38 3 -92 8 -120 10 -27 3 -77 7 -110
10 -33 3 -80 7 -105 10 -25 3 -61 7 -80 9 -19 3 -62 7 -95 11 -55 6 -149 19
-217 30 -16 3 -43 7 -60 10 -92 16 -259 67 -343 106 -11 5 -117 42 -235 83
-215 74 -382 136 -419 156 -19 10 -16 14 37 66 82 81 169 146 177 134 5 -8 11
-7 21 1 21 17 17 31 -6 19 -17 -9 -21 -8 -26 7 -3 10 -10 30 -16 45 -5 15 -7
31 -4 36 3 6 -22 1 -57 -10 -90 -28 -414 -118 -427 -118 -5 0 -28 13 -49 28
l-39 28 56 19 c164 55 331 140 398 202 63 57 77 131 28 140 -24 5 -133 4 -159
-1 -11 -2 -42 -7 -70 -10 -27 -4 -57 -9 -65 -11 -8 -2 -31 -6 -50 -9 -46 -7
-79 -14 -165 -32 -38 -9 -77 -17 -86 -19 -9 -2 -61 -13 -115 -25 -55 -12 -110
-24 -124 -26 -14 -3 -31 -7 -38 -9 -26 -9 -125 55 -412 269 -205 153 -290 207
-290 184 0 -31 151 -155 357 -291 120 -80 228 -150 241 -156 24 -13 21 -31 -5
-31 -9 0 -109 62 -222 138 -113 75 -210 139 -216 141 -5 2 -12 7 -15 10 -8 9
-100 71 -106 71 -3 0 -10 5 -17 11 -7 5 -41 29 -77 52 -154 100 -220 139 -232
135 -16 -6 38 -60 119 -119 119 -88 552 -367 640 -412 33 -18 49 -35 40 -44
-6 -5 -35 11 -147 82 -251 161 -490 309 -539 332 -19 10 -46 36 -63 65 -16 26
-73 88 -126 138 l-97 90 125 1 c214 2 240 1 268 -7 33 -9 33 -9 52 -17 8 -3
232 -79 498 -167 516 -172 702 -226 714 -207 4 7 11 8 20 0 17 -13 112 -49
163 -62 49 -12 111 -18 285 -26 184 -9 271 -18 340 -35 19 -5 51 -12 70 -15
19 -3 68 -15 108 -26 40 -11 81 -22 90 -24 9 -2 58 -16 107 -30 278 -82 444
-116 635 -130 47 -3 96 -8 110 -10 164 -25 512 -25 660 -1 14 3 45 7 70 10
120 16 210 50 210 79 0 31 -87 80 -185 105 -59 16 -170 27 -375 38 -102 5
-136 8 -162 13 -13 2 -9 28 6 40 8 6 16 21 19 32 10 36 -42 48 -239 53 -99 3
-188 7 -199 10 -11 2 -56 7 -100 10 -44 4 -87 9 -95 11 -8 2 -37 6 -65 10 -95
12 -207 29 -340 52 -49 8 -99 17 -110 18 -11 2 -67 12 -125 23 -58 12 -116 23
-130 26 -14 2 -59 12 -100 21 -41 9 -86 18 -100 21 -67 14 -207 46 -320 74
-69 17 -133 33 -142 35 -112 25 -510 143 -523 156 -6 6 -6 9 0 9 12 0 119 18
155 25 142 30 145 30 320 -15 318 -80 568 -159 814 -255 121 -47 280 -89 376
-100 30 -3 62 -8 70 -10 8 -2 49 -7 90 -10 41 -4 86 -8 100 -10 14 -2 70 -6
125 -9 160 -9 275 -16 345 -21 187 -13 224 -16 272 -20 52 -4 128 -13 178 -20
14 -2 45 -7 70 -10 93 -13 248 -46 330 -69 122 -36 133 -37 265 -40 158 -4
270 7 400 40 59 16 85 29 85 44 0 15 -83 26 -200 29 -262 4 -345 16 -354 49
-2 9 -4 36 -5 60 0 24 -6 52 -11 63 -10 17 -7 19 32 21 24 0 57 2 73 3 17 1
52 -5 79 -13 132 -38 196 -47 311 -46 185 1 234 12 427 101 159 72 221 85 394
84 127 0 146 2 185 22 23 12 52 35 63 50 18 24 19 29 6 38 -14 9 -306 6 -645
-7 -347 -13 -715 -6 -848 18 -64 11 -69 14 -83 46 -8 19 -14 37 -14 39 0 4 23
0 80 -13 14 -4 129 -9 255 -11 127 -2 302 -6 390 -8 208 -5 449 27 538 72 57
28 25 44 -96 46 -66 2 -74 4 -62 17 22 24 28 65 12 78 -15 12 -128 41 -187 47
-20 2 -75 9 -121 15 -46 6 -99 12 -118 14 -37 3 -63 32 -37 42 8 3 32 3 53 -1
21 -4 52 -9 68 -11 17 -3 37 -7 45 -10 13 -5 165 -34 254 -49 44 -7 166 -7
236 0 143 16 265 51 432 126 178 80 286 108 478 124 146 13 205 45 217 118 5
35 4 37 -20 37 -14 0 -65 -9 -114 -21 -48 -12 -99 -23 -113 -25 -14 -3 -47 -9
-75 -14 -49 -9 -84 -13 -195 -26 -30 -3 -66 -7 -80 -10 -129 -21 -1108 -26
-1168 -6 -21 7 -54 81 -33 75 73 -19 492 -25 626 -10 369 43 514 76 595 135
19 14 35 26 36 26 1 1 4 13 8 28 11 46 -28 67 -149 83 -74 10 -163 13 -545 20
-190 3 -394 8 -455 10 -166 7 -346 16 -385 20 -19 1 -80 6 -135 10 -55 4 -102
8 -105 10 -3 2 -36 6 -75 9 -38 4 -77 9 -85 11 -14 4 -31 6 -130 21 -74 11
-76 14 -19 47 58 33 102 63 162 114 22 17 47 30 56 28 10 -2 42 -6 71 -10 29
-4 62 -9 74 -11 54 -13 463 -14 511 -2 28 7 52 13 55 13 41 8 247 91 314 128
33 18 66 42 73 54 13 19 12 23 -8 42 -26 24 -137 51 -212 51 -30 0 -92 -7
-138 -16 -88 -16 -136 -20 -145 -12 -2 3 3 22 13 43 17 35 17 38 0 49 -10 8
-39 12 -74 10 -171 -11 -203 -11 -203 -6 0 4 16 24 35 45 33 36 35 37 112 38
43 0 116 3 163 6 177 12 368 5 447 -16 46 -12 228 -4 333 14 14 2 41 6 60 9
50 7 110 17 129 21 9 2 50 11 91 19 102 22 248 64 282 82 55 28 22 37 -116 30
-72 -3 -149 -8 -171 -10 -22 -3 -62 -7 -90 -10 -141 -16 -187 -19 -268 -20
-99 -1 -109 5 -122 72 -4 20 -18 51 -31 69 -23 31 -24 32 -5 42 17 10 260 7
351 -4 58 -7 313 -7 350 -1 19 4 49 8 65 10 179 21 283 60 575 218 72 39 172
76 262 98 84 19 93 21 204 39 110 17 177 60 198 127 15 50 -30 49 -197 -6 -33
-11 -130 -35 -216 -54 -148 -33 -186 -41 -256 -51 -16 -3 -70 -11 -120 -19
-106 -18 -156 -25 -210 -32 -22 -2 -56 -6 -75 -9 -19 -2 -53 -7 -75 -9 -74
-10 -145 -17 -315 -31 -30 -3 -86 -7 -124 -11 -85 -8 -338 -25 -386 -26 -53
-2 -72 4 -77 22 -3 11 -9 20 -13 20 -4 0 -10 6 -13 14 -4 11 14 13 96 13 100
0 288 10 337 18 14 2 52 6 85 9 33 3 71 8 84 11 12 2 44 7 70 10 40 4 108 16
177 29 12 2 39 7 60 11 66 10 195 43 289 74 160 52 253 102 273 146 27 58 -19
78 -182 80 -67 1 -152 -2 -191 -6 -38 -4 -119 -10 -180 -14 -60 -4 -123 -9
-140 -10 -16 -1 -73 -5 -125 -9 -52 -4 -120 -9 -150 -11 -30 -2 -93 -7 -140
-10 -47 -3 -105 -8 -130 -10 -25 -3 -81 -7 -125 -10 -93 -6 -197 -14 -240 -20
-16 -2 -70 -7 -120 -10 -49 -4 -96 -10 -104 -15 -23 -12 -53 0 -45 19 4 9 16
40 26 69 18 51 17 72 -3 72 -11 0 -75 -62 -109 -107 l-25 -31 -80 15 c-44 8
-82 16 -83 18 -2 2 27 33 65 69 118 111 195 272 208 433 13 157 40 227 149
388 62 90 66 100 66 151 0 58 -13 94 -33 94 -14 0 -61 -69 -228 -335 -232
-369 -376 -570 -496 -691 -51 -52 -70 -65 -87 -60 -11 3 -32 6 -45 6 -22 0
-19 5 30 53 30 29 82 88 114 132 33 44 62 82 65 85 3 3 21 30 40 60 19 30 37
57 40 60 10 8 62 102 96 171 65 133 79 220 44 277 -26 42 -47 41 -107 -6 -26
-21 -84 -51 -128 -67 -94 -34 -175 -76 -386 -201 -175 -103 -289 -164 -308
-164 -9 0 -12 13 -10 43 l3 42 -34 -1 c-30 -1 -224 -85 -240 -104 -11 -14
-225 -112 -360 -165 -138 -55 -148 -57 -207 -51 -101 10 -104 16 -22 46 226
84 365 148 969 448 261 129 536 263 611 297 173 79 254 133 389 262 47 45 65
54 125 69 142 34 276 84 387 142 315 168 380 214 548 389 121 126 182 214 178
258 -4 39 -36 44 -127 16 -61 -19 -132 -60 -271 -160 -189 -135 -210 -143
-210 -88 -1 73 -32 69 -169 -23 -116 -77 -114 -76 -90 -35 37 63 9 52 -60 -22
-55 -60 -79 -78 -146 -108 l-80 -35 90 86 c76 72 142 119 285 204 8 4 85 50
170 101 234 139 305 179 405 226 142 68 159 79 232 151 65 64 82 89 135 198
45 90 58 128 51 135 -16 16 -48 -9 -172 -135 -103 -104 -164 -147 -182 -129
-6 6 14 34 53 74 35 36 76 79 91 97 43 50 121 181 113 190 -4 4 -67 -54 -139
-129 -180 -185 -166 -175 -216 -149 -23 11 -41 25 -41 30 0 6 46 32 103 59 56
26 130 69 164 95 119 90 262 262 288 347 18 58 102 228 136 274 20 28 61 74
92 104 63 61 73 81 57 111 -9 16 -58 50 -74 50 -2 0 -16 -20 -30 -44 -29 -50
-177 -204 -286 -297 -41 -35 -80 -68 -86 -74 -6 -5 -35 -30 -64 -55 -29 -25
-82 -71 -118 -102 -35 -31 -70 -54 -77 -51 -8 2 -41 -30 -80 -76 -37 -45 -87
-98 -112 -120 -45 -38 -46 -38 -74 -22 l-28 16 42 35 c63 52 358 354 429 441
35 42 74 82 88 91 35 20 91 131 141 277 45 135 53 209 32 299 -21 96 -34 85
-40 -35 -4 -97 -21 -173 -52 -246 -19 -43 -23 -47 -41 -37 -17 9 -32 6 -75
-14 -30 -14 -55 -23 -55 -20 0 3 21 38 46 77 74 113 86 176 49 248 -27 51 -45
34 -105 -101 -68 -154 -106 -223 -178 -320 -61 -83 -63 -85 -147 -155 -78 -65
-67 -55 -190 -170 -141 -131 -243 -216 -332 -276 -66 -45 -182 -109 -197 -109
-4 0 8 16 26 36 18 20 37 42 41 50 4 8 43 37 85 66 323 215 540 472 566 669 5
38 2 51 -15 73 -38 48 -67 32 -308 -162 -86 -69 -162 -132 -170 -139 -75 -75
-498 -346 -746 -478 -107 -56 -107 -56 60 72 263 202 422 316 505 361 144 79
291 246 375 425 39 84 47 120 25 124 -22 4 -35 -9 -144 -137 -113 -133 -182
-200 -208 -200 -10 0 -41 18 -70 40 -29 21 -61 40 -72 42 -40 6 -23 26 86 98
242 161 348 304 363 490 3 36 7 99 10 140 9 125 16 149 73 270 41 87 42 113 5
152 -48 51 -65 40 -91 -59 -30 -116 -97 -251 -195 -396 -101 -149 -274 -364
-352 -440 -56 -55 -62 -58 -95 -52 -19 4 -41 7 -49 7 -8 1 5 17 29 37 241 196
414 489 415 699 0 47 -4 57 -29 79 -55 47 -76 30 -331 -262 -227 -259 -351
-386 -505 -515 -137 -114 -206 -157 -555 -345 -38 -21 -74 -41 -80 -45 -11 -9
-290 -149 -345 -174 -97 -43 -249 -85 -330 -90 -128 -9 -200 -16 -255 -26 -27
-5 -66 -12 -85 -15 -65 -10 -303 -73 -475 -125 -178 -54 -452 -130 -469 -130
-14 0 290 214 414 292 58 36 213 127 345 203 440 253 597 361 799 548 72 68
409 402 461 458 97 106 286 362 341 464 84 154 117 222 137 276 49 130 40 179
-25 142 -84 -48 -196 -163 -434 -450 -255 -306 -301 -353 -306 -305 0 9 -2 22
-3 27 -2 6 -3 16 -4 23 0 6 -10 12 -21 12 -21 0 -80 -57 -320 -306 -236 -245
-458 -427 -799 -653 -562 -374 -1411 -778 -1955 -931 -43 -12 -91 -24 -105
-26 -48 -9 -106 -25 -194 -56 -48 -17 -90 -28 -92 -26 -3 3 -2 19 1 35 5 27
16 35 76 62 39 17 83 31 97 31 15 0 37 9 49 20 26 25 52 37 470 215 189 80
434 187 545 237 313 140 652 287 762 330 133 52 197 86 345 184 140 92 285
206 447 351 126 112 475 461 648 647 66 71 131 141 145 156 14 14 49 53 79 86
175 193 270 294 393 417 141 142 210 225 335 402 130 185 284 448 270 462 -19
18 -112 -81 -317 -337 -51 -63 -123 -145 -160 -183 l-67 -67 -56 26 c-39 17
-67 24 -89 20 -93 -14 -53 32 361 420 165 155 275 318 445 656 137 274 233
415 408 599 24 25 55 61 70 81 39 51 94 168 102 217 12 75 -21 54 -148 -91z
m-2096 -4458 c13 -9 13 -11 0 -20 -16 -11 -66 -26 -115 -34 -56 -9 -210 -42
-310 -66 -33 -8 -184 -42 -245 -55 -8 -2 -42 -10 -75 -18 -33 -9 -71 -18 -85
-21 -97 -19 -686 -173 -920 -240 -107 -31 -280 -86 -385 -122 -221 -76 -230
-79 -292 -69 l-47 7 110 35 c60 19 156 49 214 68 58 18 173 54 255 80 206 64
278 91 361 136 39 21 86 41 105 44 19 3 42 8 51 11 9 3 25 6 35 8 10 2 101 23
203 46 102 23 196 44 210 46 14 3 50 11 80 19 51 13 446 98 515 111 238 45
308 52 335 34z m-3300 -386 c0 -6 -112 -58 -150 -69 -55 -16 1 20 73 47 85 32
77 29 77 22z m-1480 -149 c0 -19 -583 -275 -630 -276 -69 -3 -165 3 -150 8 8
3 117 43 242 89 216 79 470 167 513 177 11 3 21 5 23 6 1 0 2 -1 2 -4z m743
-129 c-25 -33 -37 -40 -171 -92 -119 -47 -133 -50 -212 -45 l-45 2 50 19 c190
69 252 91 265 94 8 2 38 13 65 25 65 26 69 26 48 -3z m2027 -106 c0 -13 -10
-17 -55 -24 -70 -11 -99 -16 -125 -21 -14 -3 -47 -7 -75 -9 -48 -5 -48 -5 -15
5 47 15 223 54 249 56 12 1 21 -2 21 -7z m2129 -64 c-32 -16 -206 -62 -269
-71 -25 -4 -58 -8 -75 -11 -16 -2 -50 -6 -75 -9 -65 -7 -117 -14 -180 -25
-135 -24 -133 -24 -125 0 6 20 5 21 -15 10 -20 -11 -21 -10 -11 8 18 34 167
63 391 77 52 4 106 8 119 10 13 2 67 7 120 11 53 4 98 8 100 10 2 2 14 4 25 4
19 0 18 -2 -5 -14z m-5629 -26 c0 -3 -60 -28 -133 -57 -131 -52 -133 -52 -269
-58 -76 -3 -138 -4 -138 -1 0 2 24 12 53 21 28 9 97 33 152 53 55 20 123 38
150 41 62 7 185 8 185 1z m975 -19 c-17 -16 -161 -61 -182 -57 -12 3 -30 10
-42 17 -19 13 -17 15 32 31 55 18 208 25 192 9z m3565 3 c0 -9 -69 -35 -168
-65 -92 -27 -93 -27 -86 -6 4 12 7 23 8 23 3 4 213 52 229 53 9 1 17 -1 17 -5z
m244 -79 c-9 -23 -34 -32 -94 -33 l-55 -1 70 24 c87 28 86 28 79 10z m-5846
-620 c-11 -12 -136 -51 -155 -49 -13 1 -38 2 -55 3 -26 1 -30 4 -16 11 28 17
112 35 173 37 32 2 56 1 53 -2z m8142 -320 c0 -13 -83 -45 -101 -40 -28 9 -20
15 43 30 29 7 54 13 56 14 1 1 2 -1 2 -4z m-2700 -127 c0 -4 -17 -8 -37 -7
-30 0 -34 2 -18 9 24 10 55 9 55 -2z m-8370 -312 c0 -2 -8 -10 -17 -17 -16
-13 -17 -12 -4 4 13 16 21 21 21 13z m-40 -30 c0 -2 -19 -16 -42 -32 -24 -16
-45 -31 -48 -34 -3 -3 -39 -32 -80 -65 -213 -170 -370 -354 -474 -555 -36 -70
-66 -106 -109 -131 -27 -15 73 171 146 274 122 169 347 380 550 513 52 34 57
37 57 30z m10451 -548 c-22 -24 -65 -69 -96 -102 l-55 -58 -62 7 c-35 4 -71 7
-80 7 -31 -1 -20 8 40 34 89 39 193 93 237 125 57 40 62 36 16 -13z m-5791
-73 c19 -3 53 -7 75 -10 22 -2 60 -8 85 -11 76 -12 17 -21 -110 -19 -63 2
-159 4 -212 5 -95 2 -118 12 -58 25 16 4 32 11 36 16 5 9 90 6 184 -6z m4537
-34 c19 -10 -91 -42 -127 -37 -14 3 -50 7 -79 10 -53 6 -82 16 -48 16 21 0 22
0 72 17 41 13 155 10 182 -6z m-3982 -13 c3 -3 -6 -9 -21 -12 -18 -5 -32 -2
-42 8 -13 13 -11 14 21 13 20 -2 39 -5 42 -9z m258 -14 c36 -6 37 -7 17 -21
-19 -13 -42 -13 -125 2 -11 2 -36 4 -55 5 -34 1 -34 1 -15 16 20 16 81 15 178
-2z m-4413 -115 c-24 -11 -119 -40 -210 -65 -91 -25 -203 -58 -249 -73 l-84
-28 54 48 c59 53 100 66 348 110 64 12 117 22 118 23 1 1 17 3 35 4 33 2 32 2
-12 -19z m-520 -93 c0 -6 -134 -112 -160 -126 -30 -16 -214 -79 -218 -75 -4 3
79 82 119 113 28 23 259 101 259 88z m2510 -65 c0 -5 -31 -21 -69 -36 -58 -22
-83 -26 -150 -23 -45 1 -81 5 -81 9 0 6 112 28 192 36 38 4 74 11 106 22 1 1
2 -3 2 -8z m625 -25 c44 -4 87 -9 95 -11 8 -2 42 -6 75 -9 33 -4 76 -8 95 -10
55 -7 219 -25 280 -31 30 -3 78 -8 105 -11 28 -3 68 -7 90 -9 22 -2 74 -7 115
-11 100 -10 130 -12 160 -13 21 -1 15 -7 -35 -36 -58 -34 -63 -35 -130 -29
-38 3 -79 8 -90 10 -11 3 -42 6 -70 9 -27 3 -93 9 -145 14 -52 6 -122 13 -155
16 -33 3 -78 8 -100 10 -53 6 -140 13 -245 20 -47 3 -99 8 -115 10 -29 4 -244
17 -292 19 -27 0 -31 16 -5 17 9 0 24 2 32 4 8 2 29 6 45 9 17 4 68 15 115 25
47 10 87 17 90 16 3 -2 41 -6 85 -9z m-2440 -5 c-13 -12 -184 -65 -191 -59 -5
6 67 33 141 53 64 17 61 17 50 6z m-2002 -128 c-6 -18 -25 -36 -75 -74 -25
-18 -27 -19 -21 -2 3 10 17 27 31 38 14 11 34 28 46 37 26 22 27 22 19 1z
m1007 -25 c-14 -13 -50 -44 -80 -70 -30 -25 -82 -72 -115 -103 -36 -34 -86
-68 -125 -86 -36 -16 -77 -37 -92 -45 -16 -8 -28 -12 -28 -7 0 4 47 55 105
113 99 99 105 104 122 88 16 -16 18 -15 44 31 24 42 35 51 81 66 29 9 60 21
68 26 32 18 45 9 20 -13z m115 -16 c-6 -5 -41 -26 -80 -46 l-70 -38 36 37 c20
20 52 41 70 45 48 11 55 11 44 2z m4735 3 c0 -9 -86 -61 -100 -60 -8 1 -26 3
-40 4 l-25 2 25 11 c84 35 140 52 140 43z m2305 -69 c207 -9 408 -23 465 -31
14 -2 81 -11 150 -20 125 -16 163 -21 210 -30 14 -2 44 -7 66 -10 71 -10 118
-16 139 -20 104 -16 274 -45 290 -48 11 -3 45 -8 75 -13 30 -4 57 -8 60 -9 36
-8 72 -15 105 -20 22 -3 56 -10 75 -15 19 -5 51 -11 70 -14 102 -16 102 -17
-26 -75 -66 -29 -128 -53 -139 -53 -87 0 -879 161 -1210 246 -93 24 -204 50
-245 56 -41 7 -82 14 -92 15 -9 2 -38 7 -65 11 -26 5 -50 9 -53 9 -3 1 -29 5
-58 10 -69 10 -76 23 -9 20 28 -2 115 -6 192 -9z m-1577 -11 c-2 -1 -46 -25
-99 -53 -82 -44 -102 -51 -130 -45 -33 6 -31 8 75 58 70 34 117 50 133 47 13
-2 23 -6 21 -7z m232 -71 c0 -5 -32 -18 -70 -28 l-25 -7 27 25 c18 16 34 22
48 19 11 -3 20 -7 20 -9z m824 -185 c251 -60 244 -59 276 -65 14 -3 79 -19
145 -36 66 -16 131 -32 145 -34 14 -3 43 -10 65 -16 22 -5 47 -12 55 -13 41
-9 125 -28 215 -50 105 -25 375 -87 460 -105 28 -6 66 -15 85 -19 l35 -7 -79
-38 -79 -38 -71 20 c-155 45 -504 129 -601 145 -24 4 -158 32 -200 41 -5 2
-28 7 -50 11 -22 5 -42 10 -45 10 -3 1 -23 5 -45 9 -173 33 -635 175 -635 196
0 7 78 38 99 39 8 1 109 -22 225 -50z m-6674 -12 c0 -5 -106 -77 -113 -77 -7
0 -100 -42 -197 -88 -30 -14 -72 -37 -93 -50 -22 -13 -40 -22 -42 -20 -2 2 9
19 26 37 34 39 207 131 324 172 80 28 95 32 95 26z m6424 -62 c90 -31 171 -57
182 -59 10 -2 66 -17 124 -34 88 -25 438 -113 505 -126 50 -11 132 -30 280
-67 88 -22 167 -42 175 -44 30 -7 195 -56 198 -59 1 -2 -25 -14 -58 -26 -68
-25 -53 -27 -280 26 -58 14 -145 34 -195 46 -49 11 -115 27 -145 35 -30 8 -64
16 -75 19 -35 7 -125 30 -330 84 -110 28 -211 54 -224 56 -14 3 -28 7 -33 10
-4 3 -16 7 -27 9 -51 10 -376 103 -421 121 -11 5 -8 9 10 14 14 5 50 18 80 29
30 11 59 20 64 21 4 0 81 -25 170 -55z m-7483 -122 c-32 -43 -110 -154 -172
-247 -105 -155 -139 -197 -139 -166 0 12 121 200 193 300 40 55 164 190 174
190 2 0 -23 -35 -56 -77z m6889 -13 c14 -5 45 -14 70 -21 73 -18 150 -50 150
-61 0 -10 -102 -6 -170 6 -14 3 -43 7 -65 11 -22 3 -69 11 -105 17 -36 7 -68
11 -72 10 -5 -1 -8 2 -8 6 0 14 123 51 150 45 14 -2 36 -9 50 -13z m-3565 -4
c329 -12 671 -33 740 -46 16 -3 -44 -18 -98 -25 -27 -4 -59 -9 -71 -11 -119
-23 -638 -22 -856 2 -209 22 -733 22 -870 0 -14 -3 -90 -7 -169 -11 -80 -3
-147 -8 -150 -9 -4 -2 -44 -6 -91 -10 -47 -4 -96 -8 -110 -11 -14 -2 -59 -9
-100 -14 -91 -13 -83 -11 -255 -54 -212 -54 -405 -124 -405 -149 0 -12 30 -10
111 7 73 16 358 94 435 120 22 7 60 16 85 20 24 3 55 8 69 10 14 2 59 7 100
10 41 4 89 9 105 11 87 11 245 15 245 7 0 -6 -26 -13 -57 -16 -32 -4 -67 -8
-78 -11 -20 -4 -69 -12 -139 -22 -21 -3 -48 -8 -60 -10 -11 -3 -57 -12 -101
-20 -196 -38 -604 -147 -735 -196 -61 -22 -108 -23 -440 -8 l-35 1 40 13 c38
13 123 56 190 96 114 69 532 198 699 215 22 3 62 11 90 19 60 17 186 35 361
51 39 4 77 9 86 10 9 2 65 6 125 10 60 4 125 8 144 10 19 2 109 6 200 10 91 4
166 8 167 8 4 5 672 -1 828 -7z m-2807 -14 c-57 -80 -200 -238 -258 -286 -19
-16 -59 -51 -87 -79 -29 -28 -55 -48 -59 -45 -6 7 32 61 148 209 61 78 146
150 243 206 28 15 28 15 13 -5z m10880 -59 c-28 -29 -35 -31 -77 -26 -25 3
-48 7 -51 10 -2 2 9 14 25 27 24 19 41 24 82 22 l52 -1 -31 -32z m-5903 18 c5
-1 4 -6 -2 -12 -8 -8 -28 -9 -59 -4 -56 8 -41 27 16 21 19 -3 39 -5 45 -5z
m3896 -112 c38 -7 66 -15 64 -20 -3 -4 -47 -23 -98 -43 l-92 -37 -84 24 -85
23 80 28 c43 15 88 31 99 36 11 5 26 7 34 4 7 -2 44 -9 82 -15z m-4302 -60
c-8 -5 -27 -9 -43 -9 -22 0 -26 3 -17 13 6 8 23 12 42 9 22 -3 27 -7 18 -13z
m1456 -69 c93 -22 174 -45 179 -50 5 -5 1 -7 -10 -5 -10 3 -53 12 -94 20 -109
23 -106 22 -184 46 -39 12 -75 26 -81 31 -6 6 -4 7 5 4 8 -3 91 -24 185 -46z
m2523 9 c34 -11 62 -24 62 -28 0 -13 -65 -31 -93 -26 -15 3 -39 7 -54 10 -110
19 -118 25 -57 46 64 23 69 23 142 -2z m1975 -90 c-5 -4 -64 -43 -133 -87
-129 -81 -139 -84 -210 -67 -24 6 -23 7 12 20 40 14 144 74 220 129 44 32 50
33 83 23 20 -6 32 -14 28 -18z m-3986 -55 c54 -20 184 -65 288 -100 105 -34
187 -63 182 -63 -9 -1 -245 51 -409 90 -69 17 -134 36 -143 43 -15 10 -31 66
-20 66 2 0 48 -16 102 -36z m-5157 -4 c-30 -5 -78 -11 -106 -15 -29 -3 -61 -7
-71 -9 -11 -3 -44 -7 -74 -11 -30 -4 -73 -11 -97 -16 -61 -13 -162 -19 -162
-9 0 8 24 13 120 25 25 4 59 9 75 11 46 8 74 12 160 19 44 4 81 8 82 9 1 0 30
2 65 3 l63 1 -55 -8z m-2292 -150 c-13 -23 -31 -40 -41 -40 -16 0 -16 3 3 40
14 27 27 40 41 40 19 0 19 -1 -3 -40z m6057 -20 c54 -11 107 -22 119 -24 140
-26 316 -57 376 -66 41 -7 84 -14 95 -16 11 -2 47 -9 80 -14 33 -5 75 -14 93
-19 18 -5 36 -10 40 -10 26 -1 102 -25 102 -32 0 -18 -394 7 -560 35 -14 3
-47 7 -75 11 -27 3 -57 8 -65 10 -17 5 -59 13 -110 21 -39 6 -76 17 -162 47
-42 14 -58 25 -58 37 0 27 11 51 20 45 5 -3 52 -14 105 -25z m1902 4 c-3 -3
-12 -4 -19 -1 -8 3 -5 6 6 6 11 1 17 -2 13 -5z m-7564 -23 c-5 -18 -25 -22
-39 -9 -10 11 6 28 26 28 13 0 17 -5 13 -19z m262 -20 c21 -1 26 -4 18 -12 -8
-8 -31 -9 -69 -4 -39 5 -53 10 -43 16 8 5 25 7 39 5 14 -3 38 -5 55 -5z m5150
-268 c22 -4 43 -8 48 -9 4 -1 19 -3 35 -4 l27 -2 -25 -7 c-14 -4 -43 -3 -65 2
-22 5 -47 10 -55 12 -8 2 -26 8 -40 14 -24 11 -24 11 5 6 17 -2 48 -8 70 -12z
m-5478 -39 c-3 -3 -12 -4 -19 -1 -8 3 -5 6 6 6 11 1 17 -2 13 -5z m553 -108
c70 -13 264 -90 306 -121 11 -8 -23 2 -75 21 -99 37 -325 101 -368 103 -7 1
-13 6 -13 11 0 12 29 9 150 -14z m6995 -272 c39 -8 81 -17 95 -20 44 -9 35
-14 -26 -14 -47 0 -127 11 -206 28 -5 1 -16 3 -25 3 -17 2 42 14 77 17 8 1 47
-5 85 -14z m-2377 -334 c53 -22 108 -50 122 -61 l25 -19 -60 6 c-59 6 -81 16
-220 96 l-50 29 43 -4 c24 -3 87 -24 140 -47z m1721 -15 c2 -3 -11 -5 -30 -6
-19 0 -46 -3 -60 -5 -16 -3 -31 2 -39 11 -12 14 -6 15 55 10 38 -3 71 -8 74
-10z m-1565 -95 c20 0 166 -125 166 -142 0 -10 -214 131 -219 144 -2 7 3 9 13
5 10 -4 28 -7 40 -7z m-749 -266 c75 -57 215 -175 262 -220 7 -7 18 -14 25
-17 7 -2 11 -7 8 -10 -3 -3 -44 23 -90 59 -47 36 -94 71 -105 79 -99 73 -131
98 -148 117 -85 96 -87 96 48 -8z m956 -376 l20 -27 -28 9 c-15 5 -47 14 -70
20 -35 9 -47 19 -70 57 l-27 46 24 19 24 19 53 -58 c30 -32 63 -70 74 -85z
m-4281 -75 c23 -26 51 -60 62 -75 l19 -28 -40 18 c-28 12 -64 46 -121 116
l-82 98 60 -40 c33 -23 78 -63 102 -89z m4635 37 c27 -28 27 -30 8 -30 -11 0
-23 8 -27 18 -3 9 -9 23 -12 30 -9 19 0 14 31 -18z m-332 -29 c40 -7 57 -18
98 -62 27 -29 49 -54 49 -57 0 -2 -12 -1 -27 2 -16 3 -44 8 -63 11 -33 5 -79
44 -130 109 -14 17 -13 18 5 13 11 -4 42 -11 68 -16z m-2389 -236 c132 -131
190 -200 183 -217 -4 -13 -29 10 -232 223 -164 171 -180 190 -166 199 9 5 28
-8 58 -44 25 -28 95 -101 157 -161z m2846 153 c71 -53 109 -84 110 -90 0 -12
-103 3 -127 18 -27 17 -83 76 -83 87 0 12 80 0 100 -15z m-4238 -45 c12 -21
42 -62 66 -91 24 -30 42 -55 40 -57 -2 -2 -31 5 -65 16 -48 16 -67 28 -82 52
-32 53 -34 74 -12 96 12 12 23 21 25 21 2 0 15 -17 28 -37z m358 -118 c124
-129 161 -175 141 -175 -14 0 -45 30 -107 105 -32 39 -75 86 -96 106 -21 20
-38 42 -38 49 0 16 19 0 100 -85z m6253 -45 c5 -4 0 -10 -11 -12 -10 -3 -38 6
-62 20 -36 22 -40 27 -24 32 17 6 73 -17 97 -40z m-3366 -329 c11 -18 10 -19
-20 -10 -17 5 -34 9 -37 9 -9 0 25 20 35 20 6 0 16 -9 22 -19z m-2476 -148 c9
-10 9 -17 1 -25 -12 -12 -36 2 -52 32 -8 14 -5 16 15 12 13 -2 30 -11 36 -19z
m-685 -111 c-4 -3 -14 2 -24 12 -16 18 -16 18 6 6 13 -6 21 -14 18 -18z m3983
2 c30 -6 92 -72 146 -156 l17 -28 -33 11 c-19 7 -39 18 -45 26 -22 27 -109
126 -122 140 -15 15 -9 16 37 7z m2111 -111 c63 -34 144 -77 178 -97 35 -20
66 -36 68 -36 5 0 172 -95 198 -112 10 -7 48 -37 84 -66 62 -50 149 -102 172
-102 12 0 102 -41 110 -50 3 -3 36 -25 73 -49 37 -24 66 -45 64 -47 -6 -6
-260 83 -367 128 -108 46 -385 182 -414 204 -19 14 -19 14 3 38 54 57 -3 97
-146 102 -69 2 -74 4 -132 51 -33 26 -72 57 -88 68 l-28 20 35 6 c57 9 70 5
190 -58z m-6134 -90 c40 -39 63 -78 42 -70 -7 3 -29 11 -50 18 -28 9 -42 23
-62 59 -14 26 -26 53 -26 60 0 14 50 -20 96 -67z m5513 38 c49 -33 48 -33 -54
-50 -97 -16 -127 -20 -190 -27 -57 -5 -61 -4 -89 25 l-29 30 24 5 c49 10 255
43 274 45 11 0 40 -12 64 -28z m-402 -60 l22 -28 -63 -2 c-59 -1 -66 1 -86 26
l-22 28 54 5 c65 6 67 6 95 -29z m-2241 -26 c103 -84 487 -465 743 -738 l33
-35 -44 15 c-29 11 -55 31 -78 60 -19 24 -69 74 -110 111 -41 37 -164 154
-273 261 -138 136 -196 200 -192 211 12 30 9 35 -23 38 -24 2 -45 16 -78 50
-86 90 -74 105 22 27z m-253 -34 c59 -72 59 -85 0 -75 -38 7 -41 11 -47 72 -3
29 -8 57 -11 62 -17 27 7 3 58 -59z m198 -248 c71 -92 78 -102 49 -77 -81 70
-139 128 -134 135 12 21 35 5 85 -58z m3131 12 c17 -14 35 -24 41 -22 6 2 26
-14 45 -35 19 -21 55 -48 80 -60 26 -12 83 -50 127 -83 115 -88 202 -145 208
-138 4 3 27 -13 53 -36 62 -55 110 -75 279 -117 179 -45 251 -68 351 -114 45
-21 92 -41 104 -45 l24 -8 -25 -12 c-53 -28 -265 -106 -339 -126 -51 -13 -121
-21 -202 -24 -111 -3 -173 -8 -248 -20 -14 -2 -50 -7 -81 -10 l-56 -7 -124
103 c-68 57 -129 108 -135 114 -6 5 -37 33 -69 60 -173 148 -392 364 -467 461
l-47 62 42 6 c23 4 102 16 174 27 73 11 150 26 170 34 53 19 61 18 95 -10z
m-1609 -74 c63 -67 228 -263 289 -345 13 -16 37 -46 53 -65 l30 -36 -32 25
c-17 14 -59 49 -93 78 -33 28 -65 52 -71 52 -42 0 80 -140 246 -283 39 -33 75
-64 80 -69 7 -7 -7 -8 -38 -5 -40 3 -47 1 -45 -12 2 -10 26 -23 63 -34 83 -25
85 -27 127 -87 70 -100 17 -88 -129 28 -59 48 -114 92 -121 99 -8 7 -30 25
-49 40 -74 57 -229 284 -329 483 -35 69 -72 139 -83 156 l-20 30 34 0 c30 0
44 -9 88 -55z m-2688 -11 c16 -16 23 -31 17 -31 -7 -1 -18 -2 -24 -3 -13 -2
-29 12 -57 47 -25 32 32 21 64 -13z m3749 -12 c10 -18 28 -48 38 -65 11 -18
16 -33 11 -33 -10 0 -133 113 -133 123 0 4 15 7 33 7 26 0 36 -6 51 -32z
m-1503 -185 c47 -49 109 -110 139 -137 47 -44 135 -174 125 -184 -11 -12 -335
261 -356 299 -9 17 -7 18 16 9 15 -6 36 -10 47 -10 21 0 21 0 3 20 -11 12 -36
31 -57 42 -38 22 -44 29 -31 41 15 16 33 3 114 -80z m-1656 -554 c53 -29 211
-177 200 -187 -2 -2 -25 6 -51 18 -47 20 -213 172 -236 215 -10 19 -10 19 8 4
10 -9 46 -32 79 -50z m5408 13 l68 -17 -68 -40 c-37 -21 -81 -46 -98 -55 -16
-9 -50 -28 -75 -42 -60 -36 -201 -95 -239 -101 -24 -4 -33 0 -45 19 -17 25
-21 45 -8 42 46 -12 283 114 351 186 29 31 27 30 114 8z m-5045 -367 c76 -78
81 -93 17 -49 -60 40 -119 100 -111 113 4 6 10 11 14 11 4 0 40 -34 80 -75z
m263 -272 l24 -26 -27 19 c-15 10 -28 22 -28 27 0 12 5 8 31 -20z m1829 -28
c25 -26 21 -32 -9 -15 -20 10 -36 40 -22 40 4 0 18 -11 31 -25z m2329 -229 c9
-8 42 -29 73 -48 l57 -34 -48 -16 c-45 -14 -49 -14 -73 6 -17 14 -27 34 -31
64 -6 45 -2 50 22 28z m457 -236 c22 -11 65 -29 95 -40 30 -12 68 -27 84 -35
17 -7 59 -24 95 -38 55 -22 60 -26 35 -27 -16 -1 -64 -3 -106 -6 -84 -5 -57
-15 -336 118 l-62 29 21 33 22 33 55 -24 c31 -14 74 -33 97 -43z m-2541 -26
c28 -8 57 -17 66 -19 61 -13 189 -59 214 -77 44 -31 135 -111 132 -115 -4 -4
-176 42 -274 74 -73 24 -89 34 -145 90 -34 35 -58 63 -53 63 6 0 33 -7 60 -16z
m2790 -467 l50 -11 -70 -11 c-40 -6 -85 -8 -105 -3 -98 23 -94 23 -88 0 10
-37 -68 -30 -158 14 -41 20 -74 37 -74 39 0 2 15 0 33 -4 54 -13 249 -2 265
13 2 2 24 -3 50 -11 26 -7 70 -19 97 -26z m-1850 -180 l70 -36 -64 -1 c-54 0
-73 5 -130 36 -36 19 -69 39 -73 43 -4 4 23 4 60 0 49 -4 86 -16 137 -42z
m2772 -43 c55 -10 56 -12 33 -51 -12 -20 -19 -41 -16 -48 3 -8 -38 1 -102 22
-59 20 -125 41 -147 47 l-40 12 70 18 c39 9 84 23 100 30 26 12 32 11 47 -5
10 -10 35 -21 55 -25z m-2360 -113 c47 -11 291 -75 393 -103 41 -11 80 -21 87
-22 7 -1 15 -5 18 -8 6 -5 -43 -4 -225 6 -165 10 -273 33 -430 95 -71 27 -73
29 -45 36 17 4 35 8 40 10 17 4 122 -4 162 -14z"/>
<path d="M15099 17246 c-40 -40 -122 -177 -112 -187 20 -20 110 98 131 175 6
20 9 36 8 36 -2 0 -14 -11 -27 -24z"/>
<path d="M16060 15596 c0 -7 7 -33 16 -57 17 -49 14 -114 -11 -194 -15 -48
-55 -192 -55 -198 0 -12 50 -3 62 11 30 35 61 145 73 259 7 68 -11 126 -54
171 -25 26 -31 27 -31 8z"/>
<path d="M15882 14798 c-33 -67 -42 -97 -32 -103 14 -9 49 35 60 74 22 79 6
95 -28 29z"/>
<path d="M17176 14311 c16 -27 16 -31 -4 -73 -12 -24 -55 -91 -97 -148 -67
-94 -73 -106 -58 -117 24 -18 28 -17 67 18 39 34 107 137 137 207 24 55 19 84
-19 118 -36 32 -47 30 -26 -5z"/>
<path d="M16764 13673 c-59 -52 -96 -123 -65 -123 16 0 63 54 77 89 19 44 14
58 -12 34z"/>
<path d="M15710 11835 c-5 -14 -16 -54 -25 -90 -14 -63 -24 -85 -119 -273 -25
-50 -49 -106 -53 -122 -5 -27 -3 -30 19 -30 38 0 77 61 158 255 35 83 43 115
47 186 4 59 2 88 -6 93 -6 4 -15 -3 -21 -19z"/>
<path d="M15373 11009 c-23 -29 -62 -129 -52 -135 27 -16 75 73 67 126 -2 19
-5 21 -15 9z"/>
<path d="M17907 10472 c-23 -21 -53 -45 -67 -53 -38 -24 -156 -66 -250 -89
-96 -24 -258 -76 -279 -89 -10 -7 -8 -12 10 -25 31 -21 50 -20 165 10 121 31
247 75 331 115 67 32 143 112 143 150 0 26 -4 25 -53 -19z"/>
<path d="M16735 10074 c-125 -35 -119 -32 -106 -48 17 -20 90 -10 165 23 119
54 91 66 -59 25z"/>
<path d="M17124 8686 c-68 -58 -156 -94 -287 -116 -83 -14 -236 -51 -269 -64
-22 -10 -24 -14 -14 -28 18 -25 54 -28 137 -13 128 24 180 37 291 76 68 24 96
40 132 76 41 42 76 103 57 103 -4 0 -25 -15 -47 -34z"/>
<path d="M15963 8386 c-73 -15 -85 -23 -60 -41 14 -10 29 -10 83 1 60 13 134
40 134 50 0 8 -97 2 -157 -10z"/>
<path d="M16252 7950 c-9 -7 -63 -25 -117 -39 -38 -10 -74 -14 -195 -26 -105
-10 -145 -16 -182 -25 -29 -8 -35 -14 -31 -30 3 -11 16 -23 29 -26 28 -7 142
1 233 16 166 28 238 54 301 109 l35 31 -33 -2 c-18 -1 -36 -5 -40 -8z"/>
<path d="M15238 7756 c-42 -11 -47 -20 -19 -35 22 -12 117 12 141 35 13 13 9
15 -35 12 -27 -1 -67 -7 -87 -12z"/>
<path d="M12165 7265 c-25 -12 -26 -14 -5 -9 14 4 29 10 35 15 12 12 5 11 -30
-6z"/>
<path d="M12251 7238 c-10 -33 -14 -52 -26 -137 -6 -43 -6 -43 19 -39 36 7 24
-6 -39 -44 -53 -32 -54 -32 -33 -50 27 -23 32 -23 85 3 42 21 53 34 32 41 -6
2 -10 49 -11 126 0 126 -9 156 -27 100z"/>
<path d="M15125 5889 c-130 -35 -226 -47 -340 -44 -228 7 -251 7 -306 0 -49
-6 -56 -10 -52 -26 5 -18 22 -26 66 -33 9 -1 27 -12 39 -23 29 -27 65 -32 153
-22 238 27 480 93 548 150 l22 18 -30 0 c-16 -1 -61 -9 -100 -20z"/>
<path d="M14102 5670 c-72 -20 -95 -36 -73 -49 8 -5 26 -7 40 -4 32 5 111 51
111 63 0 13 -2 12 -78 -10z"/>
<path d="M5945 4960 c-10 -17 5 -30 33 -30 43 0 57 15 27 28 -32 15 -52 15
-60 2z"/>
<path d="M6370 4928 c-22 -17 -33 -19 -97 -13 -65 6 -72 5 -82 -14 -6 -11 -11
-22 -11 -24 0 -11 59 -24 103 -22 48 2 86 25 109 68 14 27 7 28 -22 5z"/>
<path d="M12490 4675 c-27 -28 -31 -37 -21 -48 10 -10 18 -6 42 21 28 31 38
62 21 62 -4 0 -23 -16 -42 -35z"/>
<path d="M12680 3173 c-97 -29 -156 -73 -98 -73 26 0 102 35 118 55 12 15 2
24 -20 18z"/>
</g>
</svg>
